<?xml version="1.0" standalone="no"?><!DOCTYPE svg PUBLIC "-//W3C//DTD SVG 1.1//EN" "http://www.w3.org/Graphics/SVG/1.1/DTD/svg11.dtd"><svg t="1561875653608" class="icon" viewBox="0 0 1024 1024" version="1.1" xmlns="http://www.w3.org/2000/svg" p-id="1859" xmlns:xlink="http://www.w3.org/1999/xlink" width="200" height="200"><defs><style type="text/css"></style></defs><path d="M821.333 800H547.585l-86.466 96.074c-11.823 13.136-32.056 14.2-45.193 2.378-13.136-11.823-14.2-32.056-2.378-45.192l96-106.667A32 32 0 0 1 533.333 736h288c29.456 0 53.334-23.878 53.334-53.333v-448c0-29.456-23.878-53.334-53.334-53.334H202.667c-29.456 0-53.334 23.878-53.334 53.334v448c0 29.455 23.878 53.333 53.334 53.333h138.666c17.673 0 32 14.327 32 32 0 17.673-14.327 32-32 32H202.667c-64.802 0-117.334-52.532-117.334-117.333v-448c0-64.802 52.532-117.334 117.334-117.334h618.666c64.802 0 117.334 52.532 117.334 117.334v448c0 64.801-52.532 117.333-117.334 117.333zM704 341.333c17.673 0 32 14.327 32 32 0 17.673-14.327 32-32 32H320c-17.673 0-32-14.327-32-32 0-17.673 14.327-32 32-32h384zM512 512c17.673 0 32 14.327 32 32 0 17.673-14.327 32-32 32H320c-17.673 0-32-14.327-32-32 0-17.673 14.327-32 32-32h192z" fill="#000000" p-id="1860"></path></svg>