<?xml version="1.0" standalone="no"?><!DOCTYPE svg PUBLIC "-//W3C//DTD SVG 1.1//EN" "http://www.w3.org/Graphics/SVG/1.1/DTD/svg11.dtd"><svg t="1561885499571" class="icon" viewBox="0 0 1024 1024" version="1.1" xmlns="http://www.w3.org/2000/svg" p-id="2390" xmlns:xlink="http://www.w3.org/1999/xlink" width="200" height="200"><defs><style type="text/css"></style></defs><path d="M231.714133 208.896l543.658667 0 0 680.891733-543.658667 0 0-680.891733Z" fill="#996E28" p-id="2391"></path><path d="M232.891733 688.708267a74.274133 74.274133 0 0 0-104.686933 2.833066 74.274133 74.274133 0 0 0 2.833067 104.686934 74.274133 74.274133 0 0 0 104.686933-2.833067 74.274133 74.274133 0 0 0-2.833067-104.686933z m-10.24 92.501333a55.995733 55.995733 0 0 0-79.189333 2.1504l-0.238933-0.221867a55.995733 55.995733 0 0 0-2.1504-79.172266l0.221866-0.238934a55.995733 55.995733 0 0 0 79.172267-2.1504l0.238933 0.221867a55.995733 55.995733 0 0 0 2.1504 79.172267z" fill="#D5382E" p-id="2392"></path><path d="M181.998933 668.501333a73.7792 73.7792 0 0 1 50.8928 20.206934 74.274133 74.274133 0 0 1 2.833067 104.686933 74.274133 74.274133 0 0 1-104.686933 2.833067 74.274133 74.274133 0 0 1-2.833067-104.686934 73.864533 73.864533 0 0 1 53.794133-23.04m-2.184533 50.568534a55.808 55.808 0 0 1-38.5024-15.36l-0.221867 0.238933a55.995733 55.995733 0 0 1 2.1504 79.172267l0.238934 0.221866a55.995733 55.995733 0 0 1 79.172266-2.1504l0.221867-0.238933a55.995733 55.995733 0 0 1-2.1504-79.172267l-0.238933-0.221866a55.842133 55.842133 0 0 1-40.669867 17.493333m2.184533-67.106133a90.555733 90.555733 0 1 0 65.774934 152.900266A90.555733 90.555733 0 0 0 181.998933 651.946667z m-2.184533 83.7632a71.901867 71.901867 0 0 0 9.181867-0.597334 73.216 73.216 0 0 0 0.392533 14.370134q-2.6112-0.187733-5.239467-0.187734a71.918933 71.918933 0 0 0-9.181866 0.597334 73.216 73.216 0 0 0-0.392534-14.370134q2.6112 0.187733 5.239467 0.187734z" fill="#E8D4AB" p-id="2393"></path><path d="M238.353067 198.929067l530.3808 0 0 667.613866-530.3808 0 0-667.613866Z" fill="#D5382E" p-id="2394"></path><path d="M719.291733 873.198933H287.812267a56.1664 56.1664 0 0 1-56.098134-56.098133V248.388267a56.1664 56.1664 0 0 1 56.098134-56.098134h431.479466a56.149333 56.149333 0 0 1 56.098134 56.098134v568.712533a56.149333 56.149333 0 0 1-56.098134 56.098133zM287.812267 205.568a42.871467 42.871467 0 0 0-42.820267 42.820267v568.712533a42.871467 42.871467 0 0 0 42.820267 42.820267h431.479466a42.871467 42.871467 0 0 0 42.820267-42.820267V248.388267a42.871467 42.871467 0 0 0-42.820267-42.820267z" fill="#E8D4AB" p-id="2395"></path><path d="M241.698133 256l213.4528 213.333333a68.642133 68.642133 0 0 0 96.785067 0l214.050133-213.9648 2.747734-6.980266a49.595733 49.595733 0 0 0-49.493334-49.493334H287.812267a49.595733 49.595733 0 0 0-49.493334 49.493334z" fill="#E8D4AB" p-id="2396"></path><path d="M421.700267 334.813867l163.703466 0 0 163.703466-163.703466 0 0-163.703466Z" fill="#D5382E" p-id="2397"></path><path d="M503.466667 506.88a90.146133 90.146133 0 1 1 90.146133-90.146133A90.248533 90.248533 0 0 1 503.466667 506.88z m0-163.84a73.557333 73.557333 0 1 0 73.557333 73.557333A73.6256 73.6256 0 0 0 503.466667 343.04z" fill="#E8D4AB" p-id="2398"></path><path d="M503.722667 478.737067h-0.3584a61.9008 61.9008 0 0 0-61.9008-61.9008V416.426667a61.9008 61.9008 0 0 0 61.9008-61.9008h0.3584A61.9008 61.9008 0 0 0 565.623467 416.426667v0.3584a61.9008 61.9008 0 0 0-61.9008 61.952z" fill="#E8D4AB" p-id="2399"></path><path d="M719.291733 873.198933H287.812267a56.1664 56.1664 0 0 1-56.098134-56.098133V248.388267a56.1664 56.1664 0 0 1 56.098134-56.098134h431.479466a56.149333 56.149333 0 0 1 56.098134 56.098134v568.712533a56.149333 56.149333 0 0 1-56.098134 56.098133zM287.812267 205.568a42.871467 42.871467 0 0 0-42.820267 42.820267v568.712533a42.871467 42.871467 0 0 0 42.820267 42.820267h431.479466a42.871467 42.871467 0 0 0 42.820267-42.820267V248.388267a42.871467 42.871467 0 0 0-42.820267-42.820267z" fill="#E8D4AB" p-id="2400"></path><path d="M818.312533 156.2112a114.244267 114.244267 0 0 0-113.902933 113.902933A114.244267 114.244267 0 0 0 818.312533 384a114.244267 114.244267 0 0 0 113.902934-113.902933 114.244267 114.244267 0 0 0-113.902934-113.885867z m86.391467 114.158933a86.152533 86.152533 0 0 0-86.152533 86.152534h-0.494934a86.152533 86.152533 0 0 0-86.152533-86.152534v-0.494933a86.152533 86.152533 0 0 0 86.152533-86.152533h0.494934a86.152533 86.152533 0 0 0 86.152533 86.152533z" fill="#D5382E" p-id="2401"></path><path d="M818.312533 156.2112a114.244267 114.244267 0 0 1 113.902934 113.902933A114.244267 114.244267 0 0 1 818.312533 384a114.244267 114.244267 0 0 1-113.902933-113.902933 114.244267 114.244267 0 0 1 113.902933-113.902934m-0.238933 200.2944h0.494933a86.152533 86.152533 0 0 1 86.152534-86.152533v-0.494933a86.152533 86.152533 0 0 1-86.152534-86.152534h-0.494933a86.152533 86.152533 0 0 1-86.152533 86.152534v0.494933a86.152533 86.152533 0 0 1 86.152533 86.152533m0.238933-213.572266A127.1808 127.1808 0 1 0 945.493333 270.1312a127.3344 127.3344 0 0 0-127.1808-127.1808z m-37.2224 127.1808a100.181333 100.181333 0 0 0 37.2224-37.2224 100.181333 100.181333 0 0 0 37.2224 37.2224 100.181333 100.181333 0 0 0-37.2224 37.2224 100.181333 100.181333 0 0 0-37.2224-37.2224z" fill="#E8D4AB" p-id="2402"></path></svg>