<?xml version="1.0" standalone="no"?><!DOCTYPE svg PUBLIC "-//W3C//DTD SVG 1.1//EN" "http://www.w3.org/Graphics/SVG/1.1/DTD/svg11.dtd"><svg t="1562308872575" class="icon" viewBox="0 0 1024 1024" version="1.1" xmlns="http://www.w3.org/2000/svg" p-id="19393" xmlns:xlink="http://www.w3.org/1999/xlink" width="200" height="200"><defs><style type="text/css"></style></defs><path d="M505.7327 592.451661s-70.603048 86.207344-153.484886 86.207345-100.532601-41.440919-100.5326-70.603048 17.90657-61.649763 88.253809-65.998501 165.763677 50.394204 165.763677 50.394204z" fill="#1296db" p-id="19394"></path><path d="M511.616288 0a511.616288 511.616288 0 1 0 511.616288 511.616288 511.616288 511.616288 0 0 0-511.616288-511.616288z m310.551086 692.984262c-10.99975 21.232076-25.580814 43.743193-25.580814 43.743192l-237.134149-115.369472a361.968524 361.968524 0 0 1-90.811891 72.905321 226.390207 226.390207 0 0 1-153.484887 22.255308c-57.045216-13.302023-97.462903-51.161629-90.556083-119.718211s78.277292-92.858356 137.624782-92.858357 171.135648 39.138646 171.135648 39.138646 8.953285-21.232076 18.929803-45.789657a217.181114 217.181114 0 0 0 11.255558-44.766425h-239.180615v-25.580815h115.369473v-46.045466h-144.531601v-30.185361h146.578067v-69.324007h76.742443v70.603048h153.484886v31.72021h-153.484886v43.743192h127.904072a289.830627 289.830627 0 0 1-18.929803 69.324007 303.900075 303.900075 0 0 1-31.208594 67.277542l246.087435 84.16088a457.640769 457.640769 0 0 1-20.208844 44.766425z" fill="#1296db" p-id="19395"></path></svg>