<?xml version="1.0" standalone="no"?><!DOCTYPE svg PUBLIC "-//W3C//DTD SVG 1.1//EN" "http://www.w3.org/Graphics/SVG/1.1/DTD/svg11.dtd"><svg t="1562309038285" class="icon" viewBox="0 0 1024 1024" version="1.1" xmlns="http://www.w3.org/2000/svg" p-id="20198" xmlns:xlink="http://www.w3.org/1999/xlink" width="200" height="200"><defs><style type="text/css"></style></defs><path d="M512 512m-512 0a512 512 0 1 0 1024 0 512 512 0 1 0-1024 0Z" fill="#68A5E1" p-id="20199"></path><path d="M272.213333 421.973333c-3.413333 9.173333 1.706667 15.146667 0 50.346667 0 9.386667-40.96 52.48-56.96 97.066667s-18.133333 90.453333 6.4 108.586666 47.573333-60.586667 50.56-49.066666c1.28 4.906667 2.986667 10.24 4.906667 15.573333a221.866667 221.866667 0 0 0 40.32 67.413333c3.84 4.48-23.68 12.8-40.32 41.173334s4.693333 80.213333 87.04 80.213333c106.666667 0 129.706667-37.76 132.053333-37.546667a154.24 154.24 0 0 0 16.853334 0 95.786667 95.786667 0 0 0 15.573333 0c5.12 0 56.746667 45.226667 128 37.546667 121.6-13.013333 103.04-54.186667 93.44-80.213333s-45.226667-39.893333-42.666667-42.666667a185.813333 185.813333 0 0 0 42.666667-82.56c4.053333-12.373333 32.213333 67.626667 53.973333 49.066667 8.96-7.68 27.093333-40.106667 8.96-108.586667s-53.12-84.266667-52.266666-97.066667a237.226667 237.226667 0 0 0 0-50.346666c-6.4-23.68-20.053333-18.346667-20.053334-23.68 0-135.68-100.906667-245.76-225.28-245.76s-225.92 111.146667-225.92 246.826666c0 10.88-9.6 2.773333-17.28 23.68z" fill="#FFFFFF" p-id="20200"></path></svg>