<?xml version="1.0" standalone="no"?><!DOCTYPE svg PUBLIC "-//W3C//DTD SVG 1.1//EN" "http://www.w3.org/Graphics/SVG/1.1/DTD/svg11.dtd"><svg t="1562337272636" class="icon" viewBox="0 0 1024 1024" version="1.1" xmlns="http://www.w3.org/2000/svg" p-id="2014" xmlns:xlink="http://www.w3.org/1999/xlink" width="200" height="200"><defs><style type="text/css"></style></defs><path d="M509.305123 61.965284c-248.552889 0-450.036763 201.485921-450.036763 450.033693 0 248.546749 201.483874 450.03267 450.036763 450.03267 248.540609 0 450.0296-201.484897 450.0296-450.03267C959.334723 263.451204 757.845733 61.965284 509.305123 61.965284zM776.005324 375.750873l-317.132824 320.432986c-0.058328 0.113587-0.170892 0.113587-0.286526 0.229221-0.113587 0.058328-0.113587 0.290619-0.290619 0.290619-2.413979 2.530636-5.351891 3.797489-8.229428 5.41022-1.441838 0.860601-2.534729 2.071172-4.03285 2.64934-4.544503 1.896186-9.381671 2.762927-14.216793 2.762927-4.89345 0-9.7869-0.867764-14.392802-2.883677-1.497097-0.688685-2.705622-1.896186-4.14746-2.705622-2.820232-1.554402-5.810333-3.047406-8.230452-5.466502-0.057305-0.058328-0.11461-0.172939-0.170892-0.286526-0.058328-0.058328-0.232291-0.058328-0.290619-0.290619L247.851413 535.067368c-14.680351-15.027252-14.275121-39.151695 0.808412-53.892421 15.026228-14.508435 39.09132-14.276145 53.712319 0.923022l129.672338 133.021619 289.844318-292.910143c14.679327-14.968923 38.744419-15.087627 53.712319-0.288572C790.512736 336.657506 790.73991 360.838232 776.005324 375.750873z" fill="#e53d30" p-id="2015"></path></svg>